<svg width="572" height="347" viewBox="0 0 572 347" fill="none" xmlns="http://www.w3.org/2000/svg">
<g filter="url(#filter0_d_2_96)">
<path d="M52 61C52 55.4772 56.4772 51 62 51H490C495.523 51 500 55.4772 500 61V264C500 269.523 495.523 274 490 274H62C56.4771 274 52 269.523 52 264V61Z" fill="url(#paint0_linear_2_96)"/>
</g>
<rect x="52" y="71.8496" width="448" height="47.1382" fill="black"/>
<rect x="95" y="139.837" width="361" height="34.4472" rx="4" fill="#ADB6BF"/>
<path d="M412.383 157.864V159.587C412.383 160.334 412.303 160.979 412.144 161.521C411.984 162.059 411.754 162.501 411.453 162.847C411.157 163.189 410.804 163.442 410.394 163.606C409.983 163.77 409.528 163.852 409.026 163.852C408.625 163.852 408.252 163.802 407.905 163.702C407.559 163.597 407.247 163.435 406.969 163.216C406.695 162.998 406.458 162.722 406.258 162.389C406.062 162.052 405.911 161.651 405.807 161.186C405.702 160.721 405.649 160.188 405.649 159.587V157.864C405.649 157.116 405.729 156.476 405.889 155.943C406.053 155.405 406.283 154.965 406.579 154.624C406.88 154.282 407.235 154.031 407.646 153.872C408.056 153.708 408.511 153.626 409.013 153.626C409.414 153.626 409.785 153.678 410.127 153.783C410.473 153.883 410.785 154.04 411.063 154.255C411.341 154.469 411.578 154.744 411.774 155.082C411.97 155.414 412.121 155.813 412.226 156.278C412.33 156.738 412.383 157.267 412.383 157.864ZM410.407 159.846V157.597C410.407 157.237 410.387 156.923 410.346 156.654C410.309 156.385 410.252 156.157 410.175 155.97C410.097 155.779 410.002 155.624 409.888 155.505C409.774 155.387 409.644 155.3 409.498 155.246C409.352 155.191 409.19 155.164 409.013 155.164C408.789 155.164 408.591 155.207 408.418 155.294C408.249 155.38 408.106 155.519 407.987 155.711C407.869 155.897 407.778 156.148 407.714 156.463C407.655 156.772 407.625 157.151 407.625 157.597V159.846C407.625 160.206 407.643 160.523 407.68 160.797C407.721 161.07 407.78 161.305 407.857 161.501C407.939 161.692 408.035 161.849 408.145 161.972C408.258 162.091 408.388 162.177 408.534 162.232C408.685 162.287 408.849 162.314 409.026 162.314C409.245 162.314 409.439 162.271 409.607 162.184C409.781 162.093 409.926 161.952 410.045 161.76C410.168 161.564 410.259 161.309 410.318 160.995C410.378 160.68 410.407 160.297 410.407 159.846ZM423.712 157.864V159.587C423.712 160.334 423.632 160.979 423.473 161.521C423.313 162.059 423.083 162.501 422.782 162.847C422.486 163.189 422.133 163.442 421.723 163.606C421.312 163.77 420.857 163.852 420.355 163.852C419.954 163.852 419.581 163.802 419.234 163.702C418.888 163.597 418.576 163.435 418.298 163.216C418.024 162.998 417.787 162.722 417.587 162.389C417.391 162.052 417.241 161.651 417.136 161.186C417.031 160.721 416.978 160.188 416.978 159.587V157.864C416.978 157.116 417.058 156.476 417.218 155.943C417.382 155.405 417.612 154.965 417.908 154.624C418.209 154.282 418.564 154.031 418.975 153.872C419.385 153.708 419.84 153.626 420.342 153.626C420.743 153.626 421.114 153.678 421.456 153.783C421.802 153.883 422.115 154.04 422.393 154.255C422.671 154.469 422.908 154.744 423.103 155.082C423.299 155.414 423.45 155.813 423.555 156.278C423.659 156.738 423.712 157.267 423.712 157.864ZM421.736 159.846V157.597C421.736 157.237 421.716 156.923 421.675 156.654C421.638 156.385 421.581 156.157 421.504 155.97C421.426 155.779 421.331 155.624 421.217 155.505C421.103 155.387 420.973 155.3 420.827 155.246C420.681 155.191 420.519 155.164 420.342 155.164C420.118 155.164 419.92 155.207 419.747 155.294C419.578 155.38 419.435 155.519 419.316 155.711C419.198 155.897 419.107 156.148 419.043 156.463C418.984 156.772 418.954 157.151 418.954 157.597V159.846C418.954 160.206 418.972 160.523 419.009 160.797C419.05 161.07 419.109 161.305 419.186 161.501C419.269 161.692 419.364 161.849 419.474 161.972C419.588 162.091 419.717 162.177 419.863 162.232C420.014 162.287 420.178 162.314 420.355 162.314C420.574 162.314 420.768 162.271 420.936 162.184C421.11 162.093 421.255 161.952 421.374 161.76C421.497 161.564 421.588 161.309 421.647 160.995C421.707 160.68 421.736 160.297 421.736 159.846ZM435.041 157.864V159.587C435.041 160.334 434.961 160.979 434.802 161.521C434.642 162.059 434.412 162.501 434.111 162.847C433.815 163.189 433.462 163.442 433.052 163.606C432.642 163.77 432.186 163.852 431.684 163.852C431.283 163.852 430.91 163.802 430.563 163.702C430.217 163.597 429.905 163.435 429.627 163.216C429.353 162.998 429.116 162.722 428.916 162.389C428.72 162.052 428.57 161.651 428.465 161.186C428.36 160.721 428.308 160.188 428.308 159.587V157.864C428.308 157.116 428.387 156.476 428.547 155.943C428.711 155.405 428.941 154.965 429.237 154.624C429.538 154.282 429.893 154.031 430.304 153.872C430.714 153.708 431.17 153.626 431.671 153.626C432.072 153.626 432.443 153.678 432.785 153.783C433.131 153.883 433.444 154.04 433.722 154.255C434 154.469 434.237 154.744 434.433 155.082C434.629 155.414 434.779 155.813 434.884 156.278C434.989 156.738 435.041 157.267 435.041 157.864ZM433.065 159.846V157.597C433.065 157.237 433.045 156.923 433.004 156.654C432.967 156.385 432.91 156.157 432.833 155.97C432.755 155.779 432.66 155.624 432.546 155.505C432.432 155.387 432.302 155.3 432.156 155.246C432.01 155.191 431.849 155.164 431.671 155.164C431.448 155.164 431.249 155.207 431.076 155.294C430.907 155.38 430.764 155.519 430.645 155.711C430.527 155.897 430.436 156.148 430.372 156.463C430.313 156.772 430.283 157.151 430.283 157.597V159.846C430.283 160.206 430.301 160.523 430.338 160.797C430.379 161.07 430.438 161.305 430.516 161.501C430.598 161.692 430.693 161.849 430.803 161.972C430.917 162.091 431.046 162.177 431.192 162.232C431.343 162.287 431.507 162.314 431.684 162.314C431.903 162.314 432.097 162.271 432.266 162.184C432.439 162.093 432.585 161.952 432.703 161.76C432.826 161.564 432.917 161.309 432.976 160.995C433.036 160.68 433.065 160.297 433.065 159.846Z" fill="white"/>
<rect x="183" y="207.825" width="115" height="4.53252" rx="2.26626" fill="#AEB5BD"/>
<rect x="305" y="207.825" width="22" height="4.53252" rx="2.26626" fill="#AEB5BD"/>
<rect x="197" y="221.423" width="22" height="4.53252" rx="2.26626" fill="#AEB5BD"/>
<rect x="198" y="234.114" width="22" height="4.53252" rx="2.26626" fill="#AEB5BD"/>
<rect x="227" y="234.114" width="21" height="4.53252" rx="2.26626" fill="#AEB5BD"/>
<rect x="224" y="221.423" width="61" height="4.53252" rx="2.26626" fill="#AEB5BD"/>
<rect x="255" y="234.114" width="114" height="4.53252" rx="2.26626" fill="#AEB5BD"/>
<rect x="291" y="221.423" width="46" height="4.53252" rx="2.26626" fill="#AEB5BD"/>
<rect x="333" y="207.825" width="20" height="4.53252" rx="2.26626" fill="#AEB5BD"/>
<rect x="360" y="207.825" width="9" height="4.53252" rx="2.26626" fill="#AEB5BD"/>
<rect x="343" y="221.423" width="9" height="4.53252" rx="2.26626" fill="#AEB5BD"/>
<rect x="183" y="234.114" width="9" height="4.53252" rx="2.26626" fill="#AEB5BD"/>
<defs>
<filter id="filter0_d_2_96" x="0" y="0" width="572" height="347" filterUnits="userSpaceOnUse" color-interpolation-filters="sRGB">
<feFlood flood-opacity="0" result="BackgroundImageFix"/>
<feColorMatrix in="SourceAlpha" type="matrix" values="0 0 0 0 0 0 0 0 0 0 0 0 0 0 0 0 0 0 127 0" result="hardAlpha"/>
<feOffset dx="10" dy="11"/>
<feGaussianBlur stdDeviation="31"/>
<feComposite in2="hardAlpha" operator="out"/>
<feColorMatrix type="matrix" values="0 0 0 0 0 0 0 0 0 0 0 0 0 0 0 0 0 0 0.19 0"/>
<feBlend mode="normal" in2="BackgroundImageFix" result="effect1_dropShadow_2_96"/>
<feBlend mode="normal" in="SourceGraphic" in2="effect1_dropShadow_2_96" result="shape"/>
</filter>
<linearGradient id="paint0_linear_2_96" x1="52" y1="51" x2="495.177" y2="319.861" gradientUnits="userSpaceOnUse">
<stop stop-color="white"/>
<stop offset="1" stop-color="#D9D9D9"/>
</linearGradient>
</defs>
</svg>
